<svg width="514.999" height="511.999" xmlns="http://www.w3.org/2000/svg">
 <g>
  <title>background</title>
  <rect x="-1" y="-1" width="516.999" height="513.999" id="canvas_background" fill="none"/>
 </g>

 <g>
  <title>Layer 1</title>
  <path transform="rotate(90 257.00000000000006,255.99894714355472) " d="m455.516,236.264894l-372.364,-232.727c-7.176,-4.485 -16.218,-4.721 -23.617,-0.621c-7.399,4.099 -11.99,11.894 -11.99,20.354l0,232.727l0,232.727c0,8.46 4.591,16.254 11.992,20.356c3.516,1.949 7.401,2.917 11.281,2.917c4.287,0 8.567,-1.184 12.335,-3.537l372.364,-232.726c6.805,-4.253 10.938,-11.711 10.938,-19.735c0,0 0,0 0,-0.002c-0.002,-8.022 -4.136,-15.48 -10.939,-19.733z" fill="#7BD9BF" id="svg_1"/>
  <path transform="rotate(90 129.23077392578128,255.4605255126953) " d="m-68.232231,380.543539c3.516,1.949 7.401,2.917 11.281,2.917c4.287,0 8.567,-1.184 12.335,-3.537l372.364,-232.726c6.805,-4.253 10.938,-11.711 10.938,-19.735l0,-0.002l-418.91,0l0,232.727c0,8.461 4.591,16.254 11.992,20.356z" fill="#66B4BA" id="svg_2"/>
  <g id="svg_3"/>
  <g id="svg_4"/>
  <g id="svg_5"/>
  <g id="svg_6"/>
  <g id="svg_7"/>
  <g id="svg_8"/>
  <g id="svg_9"/>
  <g id="svg_10"/>
  <g id="svg_11"/>
  <g id="svg_12"/>
  <g id="svg_13"/>
  <g id="svg_14"/>
  <g id="svg_15"/>
  <g id="svg_16"/>
  <g id="svg_17"/>
 </g>
</svg>